HIERARCHY
ROOT Hip
{
  OFFSET 0.0 0.0 0.0
  CHANNELS 6 Xposition Yposition Zposition Xrotation Yrotation Zrotation
  JOINT LowerSpine
  {
    OFFSET 0.0 0.061367 -0.03653
    CHANNELS 3 Xrotation Yrotation Zrotation
    JOINT MiddleSpine
    {
      OFFSET 0.0 0.056002 0.002633
      CHANNELS 3 Xrotation Yrotation Zrotation
      JOINT Chest
      {
        OFFSET 0.0 0.069296 -0.013882
        CHANNELS 3 Xrotation Yrotation Zrotation
        JOINT Neck
        {
          OFFSET 0.0 0.156156 -0.002923
          CHANNELS 3 Xrotation Yrotation Zrotation
          JOINT Head
          {
            OFFSET 0.0 0.088183 0.023986
            CHANNELS 3 Xrotation Yrotation Zrotation
            End Site
            {
              OFFSET 1e-06 0.123215 0.003678
            }
          }
        }
        JOINT LClavicle
        {
          OFFSET 0.014189 0.150698 0.046467
          CHANNELS 3 Xrotation Yrotation Zrotation
          JOINT LShoulder
          {
            OFFSET 0.082893 0.021616 -0.034976
            CHANNELS 3 Xrotation Yrotation Zrotation
            JOINT LForearm
            {
              OFFSET 0.195645 -0.000695 -0.001695
              CHANNELS 3 Xrotation Yrotation Zrotation
              JOINT LHand
              {
                OFFSET 0.163209 0.000474 -0.000977
                CHANNELS 3 Xrotation Yrotation Zrotation
                End Site
                {
                  OFFSET 0.0 0.006864 0.0
                }
              }
            }
          }
        }
        JOINT RClavicle
        {
          OFFSET -0.014189 0.150698 0.046467
          CHANNELS 3 Xrotation Yrotation Zrotation
          JOINT RShoulder
          {
            OFFSET -0.082908 0.021619 -0.034982
            CHANNELS 3 Xrotation Yrotation Zrotation
            JOINT RForearm
            {
              OFFSET -0.195645 -0.000695 -0.001695
              CHANNELS 3 Xrotation Yrotation Zrotation
              JOINT RHand
              {
                OFFSET -0.163209 0.000474 -0.000977
                CHANNELS 3 Xrotation Yrotation Zrotation
                End Site
                {
                  OFFSET 0.0 0.006864 0.0
                }
              }
            }
          }
        }
      }
    }
  }
  JOINT RThigh
  {
    OFFSET -0.072558 0.02774 -0.005953
    CHANNELS 3 Xrotation Yrotation Zrotation
    JOINT RShin
    {
      OFFSET -0.005253 -0.285537 0.0
      CHANNELS 3 Xrotation Yrotation Zrotation
      JOINT RFoot
      {
        OFFSET 0.0 -0.28038 0.0
        CHANNELS 3 Xrotation Yrotation Zrotation
        JOINT RToe
        {
          OFFSET 0.0 -0.030816 0.064441
          CHANNELS 3 Xrotation Yrotation Zrotation
          End Site
          {
            OFFSET 0.0 0.0 0.043231
          }
        }
      }
    }
  }
  JOINT LThigh
  {
    OFFSET 0.072557 0.027741 -0.005953
    CHANNELS 3 Xrotation Yrotation Zrotation
    JOINT LShin
    {
      OFFSET 0.005253 -0.285539 0.0
      CHANNELS 3 Xrotation Yrotation Zrotation
      JOINT LFoot
      {
        OFFSET 0.0 -0.28038 0.0
        CHANNELS 3 Xrotation Yrotation Zrotation
        JOINT LToe
        {
          OFFSET 0.0 -0.030816 0.064441
          CHANNELS 3 Xrotation Yrotation Zrotation
          End Site
          {
            OFFSET 0.0 0.0 0.043231
          }
        }
      }
    }
  }
}
MOTION
Frames: 12
Frame Time: 0.03333333333333333
0.106752 0.573753 1.734218 10.34061 -34.752663 9.460962 -0.839311 -0.052974 0.109826 -1.74813 -0.229607 0.989297 -10.93977 -5.113515 2.923945 -0.656579 0.277592 -0.123147 0.043038 -0.032093 0.026874 -0.022638 0.380894 -14.748531 24.697447 -27.777737 -62.126842 10.889479 -24.437582 -3.122328 0.016219 0.028561 -0.013839 0.414412 0.77268 12.733415 24.534647 19.828365 55.011642 3.497405 28.685303 3.856884 0.072684 -0.115491 -0.00846 -10.326004 -7.877542 1.956655 9.049239 -5.729701 1.678809 -1.747436 1.277396 0.185517 -0.046518 0.104543 0.084298 -23.333591 -1.703731 -1.459998 21.369347 0.147682 1.312745 -0.790559 0.482037 0.368174 -0.000271 0.010506 -0.000233 
0.0948 0.573018 1.737346 11.800754 -42.420391 11.859323 -0.889937 -0.039567 0.172552 -1.669536 -0.213277 1.055944 -10.414775 -4.654654 2.95383 -0.705484 0.301127 -0.162795 0.046091 -0.02645 0.034497 0.042264 0.342339 -14.878454 24.914335 -27.095055 -62.23756 10.328955 -24.43325 -3.16974 0.021677 0.044997 -0.021178 0.445648 0.707913 12.790045 24.567894 19.887531 54.36974 3.641404 30.513641 3.772758 0.068558 -0.128991 -0.010374 -8.803586 -7.267538 2.385032 8.864395 -5.439768 1.573709 -1.499496 1.395535 0.194054 -0.06972 0.126999 0.085392 -23.141333 -1.769329 -1.969745 20.690327 -0.033556 1.426195 -0.66978 0.469191 0.396014 0.00907 -0.015483 -0.011725 
0.079363 0.572679 1.740319 16.181696 -52.680561 17.06974 -0.969281 -0.032571 0.217649 -1.53758 -0.201658 1.061998 -9.613876 -4.121061 3.017681 -0.751038 0.28663 -0.196344 0.044545 -0.005032 0.050522 0.152505 0.461793 -14.987319 25.168419 -26.434635 -61.722336 9.5332 -24.785213 -3.292067 0.020821 0.045151 -0.015933 0.470274 0.491614 12.938005 24.540638 20.476044 53.0509 4.429759 33.179054 3.573711 0.092344 -0.133716 -0.003938 -7.597017 -6.69596 2.901714 8.661901 -5.2152 1.577808 -1.092272 1.530501 0.250698 -0.087595 0.130486 0.076281 -22.366449 -1.720714 -2.351306 19.295292 -0.03333 1.354448 -0.503437 0.400473 0.36623 -0.012556 -0.014992 -0.009894 
0.063253 0.572955 1.746904 27.712576 -67.128731 28.664795 -1.027887 -0.049487 0.201273 -1.321032 -0.202021 1.02359 -8.114928 -3.453871 3.340331 -0.838461 0.242835 -0.234075 0.040329 0.042187 0.067391 0.281788 0.578245 -15.053272 24.622023 -26.201246 -61.546432 8.220592 -24.193657 -3.438025 0.01903 0.044532 -0.011832 0.496308 0.132043 12.998523 24.013674 22.257088 51.607697 5.052975 34.566162 2.992325 0.146808 -0.157468 0.005101 -5.189893 -6.590516 3.777082 7.433964 -5.000254 1.682342 -0.755364 1.716519 0.341282 -0.089369 0.156984 0.063708 -21.190006 -2.080605 -2.56583 18.232182 -0.181584 1.313858 -0.374899 0.413128 0.328269 -0.028414 -0.010357 -0.005576 
0.047412 0.57312 1.75355 59.095543 -78.562958 59.487923 -1.033074 -0.075403 0.169149 -1.125071 -0.264518 0.949938 -6.519841 -2.841062 3.784133 -0.922337 0.194188 -0.273169 0.033725 0.085547 0.082636 0.36998 0.634979 -15.021524 23.473156 -26.275845 -61.789566 7.263134 -22.933167 -3.436899 0.014943 0.039104 -0.005937 0.49888 -0.239588 12.975167 22.96575 24.98303 50.078823 5.910186 34.629299 2.526396 0.191728 -0.173165 0.014343 -2.634675 -6.883026 4.347347 6.727779 -4.960203 1.929803 -0.560826 1.794972 0.40693 -0.088231 0.171018 0.045911 -19.808496 -2.233092 -2.463742 16.552437 -0.255719 1.275177 -0.302971 0.454321 0.284946 -0.034323 -6.4e-05 -0.000175 
0.02627 0.572601 1.75809 117.86866 -80.081467 117.652397 -1.021248 -0.109071 0.156418 -0.957529 -0.308075 0.912985 -5.326713 -2.39607 4.216321 -0.981943 0.162799 -0.32339 0.028834 0.09718 0.094645 0.473968 0.674898 -15.06782 22.233788 -26.374445 -62.409271 6.60997 -21.58107 -3.249057 0.012841 0.038222 -0.003676 0.496186 -0.572469 12.93008 22.238585 27.199976 48.459583 6.926477 34.832401 2.243634 0.204681 -0.174463 0.018919 0.021858 -7.352859 4.747097 6.67959 -5.093554 2.079 -0.403244 1.787902 0.416903 -0.107178 0.169909 0.033745 -18.405468 -2.300762 -2.122185 14.652747 -0.304996 1.246553 -0.159082 0.446814 0.267534 -0.032124 0.004334 0.000856 
0.005148 0.571424 1.759569 149.228989 -75.444466 148.441452 -1.007058 -0.149992 0.109939 -0.842074 -0.346885 0.875291 -4.393213 -2.114621 4.645567 -1.028229 0.129366 -0.368664 0.025287 0.110284 0.102516 0.565629 0.680756 -15.14547 21.075218 -26.611597 -62.950413 6.18104 -20.199677 -3.074186 0.011125 0.037441 -0.002583 0.510062 -0.850142 12.864007 21.921478 29.453508 47.163715 7.884232 35.430866 2.115819 0.214437 -0.171785 0.022841 1.99348 -7.94553 5.032753 6.954399 -5.260218 2.242945 -0.194424 1.76987 0.425908 -0.124339 0.171877 0.025813 -17.91231 -2.501885 -1.659917 13.945638 -0.362693 1.20207 -0.006356 0.430614 0.252077 -0.028468 0.011645 0.00368 
-0.018736 0.570395 1.758582 157.798294 -71.849792 156.668549 -0.984316 -0.164878 0.0797 -0.832714 -0.366547 0.847158 -3.73035 -1.981035 4.841539 -1.008313 0.114823 -0.385378 0.025089 0.108029 0.105001 0.588491 0.631792 -15.276545 20.101826 -26.711666 -63.836395 5.758823 -18.576267 -2.831675 0.011639 0.039066 -0.003595 0.526292 -0.893338 12.886957 21.515722 30.94968 46.586849 8.500635 35.556194 2.176926 0.206628 -0.169201 0.022409 2.280763 -8.261103 5.123998 8.080652 -5.46973 2.278514 -0.068002 1.705726 0.405792 -0.146119 0.168148 0.028762 -18.045467 -2.566386 -1.155975 13.887938 -0.438439 1.157265 0.003199 0.431469 0.24219 -0.022414 0.008452 0.002757 
-0.04492 0.569369 1.756436 162.695404 -68.532005 161.297638 -0.990461 -0.183971 0.076165 -0.835012 -0.397991 0.844091 -3.223644 -1.888142 4.980323 -0.989935 0.106093 -0.388557 0.024269 0.099578 0.105544 0.6082 0.601324 -15.45714 19.239761 -26.660357 -64.522499 5.392498 -17.188545 -2.648178 0.013012 0.041046 -0.006973 0.540282 -0.881911 12.937949 21.244438 32.184841 46.1968 9.110285 35.133324 2.278049 0.189346 -0.164716 0.020879 2.196543 -8.473139 5.150114 9.498754 -5.632131 2.290595 -0.012926 1.633913 0.379462 -0.166754 0.163073 0.033843 -18.210196 -2.584732 -0.692389 14.276381 -0.571161 1.1965 -0.04256 0.411139 0.240444 -0.013721 0.001346 -0.00106 
-0.072272 0.568359 1.75314 165.945297 -65.481934 164.279968 -1.014333 -0.212037 0.080895 -0.82177 -0.426369 0.863725 -2.832886 -1.809895 5.115454 -0.998513 0.099643 -0.383331 0.024142 0.087225 0.10396 0.616111 0.562007 -15.636126 18.522058 -26.52578 -65.146187 5.129956 -15.918862 -2.457095 0.015569 0.044958 -0.012786 0.543403 -0.888605 13.051211 20.994282 33.186298 45.979721 9.6012 34.22757 2.373391 0.165385 -0.159498 0.0182 2.150206 -8.731701 5.30581 10.749099 -5.787226 2.246604 0.044187 1.573502 0.351507 -0.187804 0.157354 0.041792 -18.364298 -2.589294 -0.170592 15.061807 -0.682251 1.253849 -0.087703 0.40578 0.245381 -0.001886 -0.00812 -0.007041 
-0.09945 0.567205 1.749378 167.822052 -63.256226 165.882187 -1.033199 -0.23312 0.099935 -0.8134 -0.45977 0.896451 -2.605592 -1.813687 5.20806 -1.002678 0.102953 -0.378193 0.024915 0.06935 0.10085 0.605662 0.524143 -15.779511 18.015896 -26.37044 -65.66774 4.934548 -14.827537 -2.242522 0.01956 0.050939 -0.019866 0.541712 -0.933053 13.18245 20.62499 33.880295 46.020664 9.850842 32.932579 2.422262 0.132498 -0.152469 0.013846 2.215538 -8.960633 5.576193 11.687518 -5.912449 2.158805 0.091975 1.528867 0.327643 -0.210071 0.150557 0.052419 -18.62908 -2.555416 0.329323 16.120014 -0.781648 1.355513 -0.125054 0.440485 0.272935 0.014139 -0.020936 -0.016858 
-0.12588 0.56621 1.746447 168.961304 -61.154434 166.864822 -1.046326 -0.253017 0.136674 -0.787696 -0.496424 0.935638 -2.313532 -1.892712 5.222059 -1.015972 0.108797 -0.384038 0.025699 0.040082 0.093388 0.612484 0.483992 -15.92586 17.369156 -26.292732 -66.016457 4.501132 -14.06217 -2.060722 0.024574 0.059022 -0.02725 0.500466 -0.993223 13.333408 20.354776 34.414341 45.984409 9.965542 31.30632 2.349277 0.095173 -0.145628 0.009203 2.046141 -9.077704 5.845747 12.469735 -5.970948 2.009218 0.145411 1.495821 0.282344 -0.228879 0.152165 0.06433 -18.67095 -2.407979 0.707054 16.956726 -0.845095 1.353877 -0.220946 0.456954 0.318617 0.02368 -0.040469 -0.029411 
